<?xml version="1.0" standalone="no"?>
<!DOCTYPE svg PUBLIC "-//W3C//DTD SVG 1.1//EN" "http://www.w3.org/Graphics/SVG/1.1/DTD/svg11.dtd" >
<!--
2013-9-30: Created.
-->
<svg>
<metadata>
Created by iconfont
</metadata>
<defs>

<font id="iconfont" horiz-adv-x="1024" >
  <font-face
    font-family="iconfont"
    font-weight="500"
    font-stretch="normal"
    units-per-em="1024"
    ascent="896"
    descent="-128"
  />
    <missing-glyph />
    
    <glyph glyph-name="yousanjiao" unicode="&#58880;" d="M243.9786-143.3834V754.8066410973361l537.2558-449.6951L243.9786-143.3834zM243.9786-143.3834"  horiz-adv-x="1000" />

    
    <glyph glyph-name="57" unicode="&#58948;" d="M65 300c0-246.854 200.146-447 447-447 246.854 0 447 200.146 447 447 0 246.854-200.146 447-447 447C265.146 747 65 546.854 65 300zM94.8 300C94.8 530.048 281.952 717.2 512 717.2S929.199 530.048 929.199 300 742.048-117.2 512-117.2 94.8 69.952 94.8 300zM402.694 536.45 638.082 300 402.694 63.55 385.918 80.399 604.528 300 385.918 519.571Z"  horiz-adv-x="1024" />

    
    <glyph glyph-name="gouxuan" unicode="&#58932;" d="M467.215 157.916c-5.544-7.596-13.639-12.239-22.349-12.83-0.623-0.039-1.239-0.039-1.86-0.039-8.056 0-15.832 3.479-21.685 9.789l-166.94 180.119c-12.502 13.461-12.935 35.845-0.956 49.916 11.977 14.096 31.82 14.559 44.329 1.079l142.525-153.744 272.245 342.423c10.999 15.087 30.762 17.239 44.128 4.854 13.366-12.407 15.283-34.664 4.289-49.73L467.213 157.917 467.215 157.916z"  horiz-adv-x="1024" />

    
    <glyph glyph-name="tubiao15" unicode="&#58959;" d="M840.655667 703.881419c30.637211 0 55.523164-24.938145 55.523164-55.562052L896.178831 257.06915c0-30.561482-24.88493-55.373755-55.523164-55.373755l-136.680355 0c-35.389673 0-64.0252-28.626317-64.0252-63.938215 0 0 0-5.937507 0-15.249017-39.891412 32.374868-79.782825 64.811137-79.782825 64.811137-11.379711 9.313556-25.63505 14.376095-40.391833 14.376095l-336.448517 0c-30.574786 0-55.459716 24.812272-55.459716 55.373755L127.86722 648.319367c0 30.62493 24.88493 55.562052 55.459716 55.562052L840.655667 703.881419M840.655667 767.882058l-657.327708 0c-65.964458 0-119.48594-53.562416-119.48594-119.561668L63.84202 257.06915c0-65.874403 53.521481-119.374394 119.48594-119.374394l336.448517 0c0 0 139.181436-113.249613 158.064387-128.000256 8.87863-6.874901 15.256181-9.81193 19.508222-9.81193 4.752462 0 6.877971 3.750597 6.753122 9.81193-0.188297 11.375617-0.124849 128.000256-0.124849 128.000256l136.680355 0c66.089308 0 119.548365 53.499991 119.548365 119.374394L960.206078 648.319367C960.204031 714.319643 906.744975 767.882058 840.655667 767.882058L840.655667 767.882058zM752.120084 447.88193c0-26.56221-21.571306-47.999456-48.019923-47.999456-26.510019 0-48.019923 21.437247-48.019923 47.999456 0 26.563233 21.509905 47.999456 48.019923 47.999456C730.548778 495.881387 752.120084 474.44414 752.120084 447.88193zM560.042437 447.88193c0-26.56221-21.571306-47.999456-48.0189-47.999456-26.542766 0-48.019923 21.437247-48.019923 47.999456 0 26.563233 21.477157 47.999456 48.019923 47.999456C538.470108 495.881387 560.042437 474.44414 560.042437 447.88193zM367.96479 447.88193c0-26.56221-21.571306-47.999456-48.019923-47.999456-26.541743 0-48.0189 21.437247-48.0189 47.999456 0 26.563233 21.477157 47.999456 48.0189 47.999456C346.393484 495.881387 367.96479 474.44414 367.96479 447.88193z"  horiz-adv-x="1025" />

    
    <glyph glyph-name="huidingbu" unicode="&#58914;" d="M825.568 256.672l-287.392 289.28C531.808 552.352 523.488 555.424 515.2 555.36 514.08 555.456 513.12 556 512 556c-4.672 0-9.024-1.088-13.024-2.88-4.032-1.536-7.872-3.872-11.136-7.136l-259.328-258.88c-12.512-12.48-12.544-32.736-0.032-45.248 6.24-6.272 14.432-9.408 22.656-9.408 8.192 0 16.352 3.136 22.624 9.344L480 447.712 480-116c0-17.696 14.336-32 32-32s32 14.304 32 32L544 449.28l236.192-237.728c6.24-6.272 14.496-9.44 22.688-9.44s16.32 3.104 22.56 9.312C838.016 223.872 838.048 244.16 825.568 256.672zM864 620 160 620C142.336 620 128 634.336 128 652s14.336 32 32 32l704 0c17.696 0 32-14.336 32-32S881.696 620 864 620z"  horiz-adv-x="1024" />

    
    <glyph glyph-name="fanghuidingbu" unicode="&#58931;" d="M691.2 276.48c12.288 12.288 12.288 31.744 0 43.008L533.504 478.208C528.384 483.328 520.192 486.4 512 486.4s-16.384-3.072-21.504-9.216L332.8 320.512c-6.144-6.144-9.216-14.336-9.216-21.504s3.072-15.36 9.216-21.504c12.288-12.288 31.744-12.288 43.008 0L481.28 381.952l0-351.232c0-17.408 13.312-30.72 30.72-30.72 17.408 0 30.72 13.312 30.72 30.72L542.72 381.952l105.472-105.472C659.456 265.216 678.912 265.216 691.2 276.48zM829.44 580.608 194.56 580.608c-17.408 0-30.72 13.312-30.72 30.72s13.312 30.72 30.72 30.72l634.88 0c17.408 0 30.72-13.312 30.72-30.72S846.848 580.608 829.44 580.608z"  horiz-adv-x="1024" />

    
    <glyph glyph-name="icon" unicode="&#58930;" d="M782.246469 655.472901c36.608779-36.608779 64.905242-79.291904 84.184331-126.794801 18.651802-45.9004 28.084639-94.451162 28.010961-144.263661 0.069585-49.808406-9.359158-98.363262-28.015054-144.260591-19.279089-47.50392-47.569412-90.189092-84.175121-126.793778-36.606733-36.606733-79.294974-64.900126-126.797871-84.179214-45.896306-18.654872-94.451162-28.084639-144.259568-28.015054-49.808406-0.069585-98.365308 9.358135-144.259568 28.015054-47.50392 19.277042-90.192162 47.569412-126.800941 84.179214-36.604686 36.603663-64.895009 79.289857-84.173075 126.793778-18.656919 45.895283-28.084639 94.452185-28.015054 144.260591-0.072655 49.812499 9.359158 98.363262 28.010961 144.263661 19.280112 47.501874 47.575552 90.186022 84.183308 126.793778 36.604686 36.604686 79.286788 64.899102 126.789685 84.178191 45.9004 18.651802 94.451162 28.084639 144.263661 28.011984 49.813522 0.072655 98.363262-9.360182 144.264685-28.011984C702.959681 720.373027 745.642806 692.077587 782.246469 655.472901M827.505255 700.731688C652.829957 875.406986 369.558335 875.406986 194.883037 700.730665 20.202623 526.05025 20.201599 242.779651 194.876897 68.104353c174.681438-174.681438 457.952037-174.679391 632.632451 0C1002.18567 242.779651 1002.18567 526.05025 827.505255 700.731688L827.505255 700.731688 827.505255 700.731688zM557.129338 382.513136 716.737476 542.12025l-45.222971 45.223994L511.906367 427.736107 352.762811 586.87864l-45.344744-45.344744 159.142533-159.143557L309.697993 225.527732l45.201481-45.201481 156.86363 156.86363 157.358911-157.356864 45.333488 45.333488L557.129338 382.513136zM714.465736 225.175715"  horiz-adv-x="1024" />

    
    <glyph glyph-name="gou" unicode="&#58933;" d="M933.568 684.992c-27.072 28.096-71.232 28.096-98.304-0.128l-474.816-492.096L213.12 345.344c-27.2 28.16-71.232 28.16-98.432 0.064-27.008-28.096-27.008-73.664 0-101.952l196.864-203.904c27.008-28.096 71.104-28.096 98.304-0.128 0.512 0.576 0.704 1.344 1.216 1.92l522.56 541.632C960.64 611.2 960.64 656.768 933.568 684.992z"  horiz-adv-x="1024" />

    
    <glyph glyph-name="xiaoxi" unicode="&#59379;" d="M512 896C229.696 896 0 699.328 0 457.578667c0-144.384 82.282667-278.336 220.778667-360.469333l0-203.733333c0-8.213333 4.714667-15.744 12.181333-19.285333C235.882667-127.338667 239.04-128 242.154667-128c4.8 0 9.578667 1.621333 13.461333 4.8l181.589333 147.456c26.794667-3.413333 51.370667-5.077333 74.794667-5.077333 282.282667 0 512 196.693333 512 438.421333C1024 699.328 794.282667 896 512 896zM512.021333 61.909333c-24.106667 0-49.664 1.941333-78.144 5.952-5.845333 0.874667-11.84-0.832-16.448-4.586667l-153.92-125.034667 0 171.2c0 7.701333-4.16 14.848-10.901333 18.602667-131.413333 73.813333-209.877333 197.013333-209.877333 329.514667C42.730667 675.754667 253.269333 853.269333 512 853.269333s469.312-177.472 469.312-395.648S770.773333 61.909333 512.021333 61.909333zM512 457.6m-49.066667 0a2.3 2.3 0 1 0 98.133333 0 2.3 2.3 0 1 0-98.133333 0ZM266.709333 457.6m-49.066667 0a2.3 2.3 0 1 0 98.133333 0 2.3 2.3 0 1 0-98.133333 0ZM757.290667 506.666667c-27.114667 0-49.024-21.952-49.024-49.088 0-27.136 21.888-49.045333 49.024-49.045333 27.157333 0 49.088 21.909333 49.088 49.045333C806.378667 484.714667 784.448 506.666667 757.290667 506.666667z"  horiz-adv-x="1024" />

    
    <glyph glyph-name="dizhi" unicode="&#58910;" d="M726.464 178.816c-30.656-35.072-78.912-109.824-163.52-217.408-14.144-17.344-33.536-27.008-54.144-27.008-20.736 0-39.808 9.792-53.568 26.752-2.112 2.88-163.904 228.032-163.904 228.032l0 0.064c-57.536 64.576-146.368 193.92-146.368 284.032 0 198.72 160.384 360.384 364.288 360.384s369.856-161.664 369.856-360.384C879.04 356.928 742.08 196.8 726.464 178.816L726.464 178.816zM509.248 777.536c-172.16 0-312.256-136.512-312.256-304.256 0-72.768 83.328-196.992 135.872-258.176 57.472-66.88 162.688-214.272 167.168-220.544 1.728-2.112 4.992-4.032 8-4.032 3.072 0 6.336 1.92 9.216 5.44 82.752 105.216 132.032 181.12 165.312 219.264 66.944 76.608 138.944 189.952 138.944 257.984C821.44 641.024 681.408 777.536 509.248 777.536L509.248 777.536zM509.248 332.992c-94.72 0-171.84 75.072-171.84 167.424s77.12 167.424 171.84 167.424c94.72 0 171.776-75.072 171.776-167.424S603.968 332.992 509.248 332.992L509.248 332.992zM509.248 611.712c-63.04 0-114.304-49.984-114.304-111.296 0-61.376 51.264-111.296 114.304-111.296 63.04 0 114.304 49.984 114.304 111.296C623.488 561.728 572.224 611.712 509.248 611.712L509.248 611.712z"  horiz-adv-x="1024" />

    
    <glyph glyph-name="triangle" unicode="&#58883;" d="M213.462 38.692v692.46l593.65-343.069z"  horiz-adv-x="1024" />

    
    <glyph glyph-name="iconset0125" unicode="&#58934;" d="M964.608 673.792c0 13.312-8.192 21.504-21.504 21.504-4.096 0-12.288-4.096-17.408-8.192l0 0-545.792-563.2L80.896 421.888c-4.096 0-8.192 4.096-12.288 4.096-13.312 0-21.504-8.192-21.504-21.504 0-4.096 4.096-13.312 4.096-13.312l311.296-311.296c4.096-4.096 8.192-4.096 13.312-4.096 4.096 0 13.312 4.096 17.408 8.192l0 0 563.2 576.512 0 0C960.512 665.6 964.608 669.696 964.608 673.792z"  horiz-adv-x="1024" />

    
    <glyph glyph-name="zhiding" unicode="&#58935;" d="M847.031 830.71h-670.064c-61.684 0-111.677-49.993-111.677-111.677v-670.064c0-61.685 49.993-111.679 111.677-111.679h670.064c61.684 0 111.679 49.993 111.679 111.679l-0 670.064c0 61.685-49.994 111.677-111.679 111.677zM434.994 667.295h363.875v-73.132l-157.255 0-10.697-57.061h151.342v-271.715h-79.71l0 200.365h-183.692v-204.527h-79.676l0 275.877h102.272l10.679 57.061h-117.14v73.132zM373.188 212.471c0-24.167-4.223-43.293-12.651-57.366-8.428-14.074-19.84-22.904-34.324-26.463-14.448-3.576-46.991-5.34-97.509-5.34-2.792 23.774-7.329 49.539-13.645 77.284 18.217-1.989 36.016-2.967 53.466-2.967 15.88 0 23.784 8.699 23.784 26.149l0 355.535h-76.080v81.446h209.866v-81.446h-52.907v-366.834zM758.475 103.079c-39.663 32.893-89.29 70.654-148.933 113.248-26.786-44.583-82.362-83.122-166.817-115.62-12.267 23.383-28.147 49.138-47.551 77.283 42.788 11.691 78.435 26.96 106.879 45.779 28.443 18.82 47.254 44.627 56.502 77.433 9.195 32.806 13.821 75.364 13.821 127.687h78.487c0-58.063-4.674-106.329-13.959-144.77 55.875-35.283 113.247-74.221 172.087-116.826l-50.516-64.213z"  horiz-adv-x="1024" />

    
    <glyph glyph-name="shouqi1" unicode="&#59025;" d="M0 896h128v-128h-128v128zM320 896h704v-128h-704v128zM0 448h128v-128h-128v128zM320 448h704v-128h-704v128zM0 0h128v-128h-128v128zM320 0h704v-128h-704v128z"  horiz-adv-x="1024" />

    
    <glyph glyph-name="caret-right" unicode="&#58895;" d="M384.261 130.386l252.185 253.732-251.921 251.135z"  horiz-adv-x="1024" />

    
    <glyph glyph-name="4" unicode="&#58953;" d="M676.155199 528.423297c0 81.740676-66.580394 147.997706-148.71095 147.997706-82.129532 0-148.705833-66.258053-148.705833-147.997706 0-81.736583 66.575278-147.992589 148.705833-147.992589C609.573781 380.431731 676.155199 446.686714 676.155199 528.423297L676.155199 528.423297zM411.779949 528.423297c0 63.563688 51.782364 115.110691 115.6643 115.110691 63.880913 0 115.663276-51.548026 115.663276-115.110691 0-63.570851-51.783387-115.103528-115.663276-115.103528C463.561289 413.319769 411.779949 464.852446 411.779949 528.423297L411.779949 528.423297zM791.820522 528.423297c0 145.30027-118.357642 263.104303-264.376273 263.104303-146.020678 0-264.377296-117.804033-264.377296-263.104303 0-145.292084 264.377296-460.423321 264.377296-460.423321S791.820522 383.131213 791.820522 528.423297L791.820522 528.423297zM527.443225 758.646726c127.753639 0 231.334739-103.068424 231.334739-230.222405 0-127.149888-231.334739-411.098939-231.334739-411.098939S296.11565 401.281595 296.11565 528.423297C296.11565 655.578302 399.695726 758.646726 527.443225 758.646726L527.443225 758.646726zM644.311956 173.401538c-7.234775-9.878998-14.298658-19.358907-21.084201-28.352745 70.555939-8.087189 119.024837-24.831548 119.024837-44.162826 0-27.237341-96.176456-49.331545-214.810391-49.331545-118.633934 0-214.802204 22.094204-214.802204 49.331545 0 19.333324 48.460712 36.075637 119.014604 44.162826-6.78452 8.993838-13.845333 18.473747-21.076014 28.352745-77.959559-13.847379-130.98831-41.12463-130.98831-72.516594 0-45.416376 110.967324-82.21856 247.851924-82.21856 136.883577 0 247.851924 36.802184 247.851924 82.21856 0 31.392988-53.029774 58.669214-130.987287 72.516594L644.311956 173.401538z"  horiz-adv-x="1024" />

    
    <glyph glyph-name="xiangxiajiantou" unicode="&#58929;" d="M771.512499 386.50403 511.614214-63.653483 251.715929 386.50403 414.441057 386.50403 414.441057 831.867354 608.786347 831.867354 608.786347 386.50403Z"  horiz-adv-x="1024" />

    
    <glyph glyph-name="gou1" unicode="&#58937;" d="M350.098633 188.28041l-210.483852 210.483852-71.423703-71.423703 281.907555-281.907555 605.710288 605.710288-71.423703 71.423703L350.098633 188.28041z"  horiz-adv-x="1024" />

    
    <glyph glyph-name="dizhi1" unicode="&#58889;" d="M839.946482 506.663458c0 179.917116-147.043874 325.820973-328.561518 325.820973-181.460336 0-328.561518-145.903857-328.561518-325.820973 0-59.446709 16.307166-114.955546 44.308214-162.939652l-0.351011 0 284.574638-407.316894 284.690277 407.316894-0.379665 0C823.757001 391.707912 839.946482 447.216749 839.946482 506.663458M511.413617 343.784184c-90.716353 0-164.280247 72.922251-164.280247 162.907928 0 89.927346 73.563895 162.907928 164.280247 162.907928 90.802315 0 164.280247-72.980582 164.280247-162.907928C675.693865 416.706435 602.215932 343.784184 511.413617 343.784184"  horiz-adv-x="1025" />

    
    <glyph glyph-name="fanhuidingbu36px" unicode="&#58902;" d="M928.051229 832.455755 95.342973 832.455755c-17.72878 0-32.101115-14.372336-32.101115-32.101115s14.372336-32.101115 32.101115-32.101115l339.133907 0-308.434721-308.434721c-12.536524-12.536524-12.536524-32.861432 0-45.397956 12.535501-12.535501 32.861432-12.535501 45.397956 0L479.595474 722.577229l0-754.930845c0-17.72878 14.372336-32.101115 32.101115-32.101115s32.101115 14.372336 32.101115 32.101115L543.797705 721.816912l307.396065-307.396065c12.536524-12.536524 32.862455-12.536524 45.397956 0 12.536524 12.535501 12.536524 32.861432 0 45.397956l-308.433698 308.434721 339.8932 0c17.72878 0 32.101115 14.372336 32.101115 32.101115S945.780009 832.455755 928.051229 832.455755z"  horiz-adv-x="1024" />

    
    <glyph glyph-name="ai-top" unicode="&#58970;" d="M39.385 896h945.231v-157.538h-945.231v157.538zM984.615 187.077h-236.308v-315.077h-472.615v315.077h-236.308l472.615 472.615 472.615-472.615z"  horiz-adv-x="1024" />

    
    <glyph glyph-name="0005" unicode="&#58913;" d="M945.611853 284.221539 512.025803 717.80759 511.974197 717.704379 511.922592 717.80759l-433.58605-433.58605 72.24714-72.24714 361.390516 361.390516 361.33891-361.390516L945.611853 284.221539zM945.611853 284.221539"  horiz-adv-x="1024" />

    
    <glyph glyph-name="shanchu" unicode="&#59120;" d="M590.514383 407.959051 952.888054 44.874737C981.253371 16.453832 981.11016-29.804176 952.546629-58.423734 923.783934-87.242895 877.825294-87.196523 849.450322-58.76589L487.076651 304.318424 124.70298-58.76589C96.337663-87.186795 50.170204-87.043365 21.606672-58.423734-7.156023-29.604646-7.109798 16.444104 21.265175 44.874737L383.638845 407.959051 21.265175 771.043365C-7.100143 799.46427-6.956932 845.722278 21.606672 874.341836 50.369368 903.160997 96.328008 903.114625 124.70298 874.683992L487.076651 511.599678 849.450322 874.683992C877.815566 903.104897 923.983025 902.961467 952.546629 874.341836 981.309325 845.522748 981.263026 799.473998 952.888054 771.043365L590.514383 407.959051 590.514383 407.959051Z"  horiz-adv-x="1024" />

    
    <glyph glyph-name="gou2" unicode="&#59261;" d="M420.193103-103.282759c-45.903448 0-91.806897 17.655172-123.586207 49.434483l-233.048276 233.048276c-56.496552 56.496552-60.027586 144.772414-10.593103 197.737931 24.717241 28.248276 63.558621 45.903448 102.4 45.903448 38.841379 0 74.151724-14.124138 102.4-42.372414l162.427586-162.427586 610.868966 610.868966c56.496552 56.496552 144.772414 60.027586 197.737931 10.593103 28.248276-24.717241 45.903448-63.558621 45.903448-102.4 0-38.841379-14.124138-74.151724-42.372414-102.4l-692.082759-692.082759C512-85.627586 466.096552-103.282759 420.193103-103.282759zM158.896552 391.062069C155.365517 391.062069 155.365517 391.062069 158.896552 391.062069c-31.77931 0-60.027586-14.124138-77.682759-35.310345-35.310345-42.372414-31.77931-109.462069 10.593103-151.834483l233.048276-233.048276c52.965517-52.965517 144.772414-52.965517 197.737931 0l692.082759 692.082759c21.186207 21.186207 31.77931 49.434483 31.77931 77.682759 0 28.248276-14.124138 56.496552-35.310345 77.682759-42.372414 35.310345-109.462069 31.77931-151.834483-10.593103l-635.586207-635.586207-187.144828 187.144828C211.862069 380.468966 187.144828 391.062069 158.896552 391.062069z"  horiz-adv-x="1307" />

    
    <glyph glyph-name="shanchu1" unicode="&#58918;" d="M512-359.489906M718.519288 207.772936 543.827304 382.362582l174.180292 174.180292c8.801119 8.801119 8.801119 23.128523 0 31.827304-8.801119 8.801119-23.128523 8.801119-31.827304 0L512 414.189886 337.819708 588.370178c-8.801119 8.801119-23.230861 8.596442-31.929642-0.102339l0.102339 0.102339c-8.801119-8.801119-8.698781-23.026184 0.102339-31.827304l174.180292-174.180292L305.58305 207.772936c-8.801119-8.801119-8.801119-23.128523 0-31.827304 8.801119-8.801119 23.128523-8.801119 31.827304 0L512 350.535279 686.691985 175.945633c8.801119-8.801119 22.923846-8.903458 31.724965-0.102339l0.102339 0.102339C727.218069 184.644413 727.218069 198.971817 718.519288 207.772936z"  horiz-adv-x="1024" />

    
    <glyph glyph-name="fanhuidingbu" unicode="&#58971;" d="M30.332842 895.653099l963.333292 0 0-74.102718-963.333292 0 0 74.102718ZM564.392254 733.46316 512 785.856437 459.606723 733.46316 459.606723 733.46316 119.017674 392.874111 171.409928 340.480834 474.948129 644.019035 474.948129-127.653099 549.050848-127.653099 549.050848 644.019035 852.589049 340.480834 904.982326 392.874111 564.392254 733.46316Z"  horiz-adv-x="1024" />

    
    <glyph glyph-name="fanhuidingbu1" unicode="&#59147;" d="M64.271816 149.960663 511.185448 648.566608 959.727161 149.960663 928.793638 119.433392 511.185448 583.849654 95.206362 119.433392Z"  horiz-adv-x="1024" />

    
    <glyph glyph-name="1fanhuidingbu" unicode="&#58905;" d="M543.261644 701.262972c-8.260053 8.264045-19.093138 12.393073-29.926222 12.390079-1.437225 0-2.87445-0.074855-4.304689-0.219576-0.173665-0.019961-0.342339-0.042917-0.516004-0.063877-0.493048-0.054894-0.988092-0.112782-1.481141-0.187638-0.340343-0.049904-0.682682-0.112782-1.021028-0.169672-0.317387-0.055892-0.637769-0.107792-0.95815-0.171669-0.433164-0.085834-0.863333-0.184644-1.291507-0.283453-0.224566-0.0519-0.447137-0.099807-0.668709-0.155699-0.486062-0.118771-0.966135-0.251514-1.44521-0.389248-0.167676-0.046909-0.338347-0.093819-0.506023-0.145719a39.044618 39.044618 0 0 1-1.520065-0.48706c-0.138732-0.047908-0.277464-0.092821-0.417195-0.13973a43.695638 43.695638 0 0 1-1.556993-0.588863c-0.119769-0.046909-0.233549-0.089827-0.349326-0.13973-0.534967-0.216582-1.064944-0.448135-1.583942-0.687673l-0.291437-0.129749c-0.549938-0.258501-1.093888-0.528979-1.63185-0.809437l-0.197618-0.100806c-0.583873-0.309403-1.159761-0.630782-1.729661-0.966134a42.512922 42.512922 0 0 1-9.142349-7.240022L119.237293 337.093062c-16.521103-16.521103-16.521103-43.30639 0-59.828492 16.520105-16.521103 43.356294-16.521103 59.877397 0L471.069024 569.173991v-654.80579c0-23.36489 18.896517-42.372194 42.258413-42.372193h-0.159692c23.363892 0 42.144633 19.007303 42.144633 42.372193V569.280785l292.155945-291.803625c16.520105-16.519107 43.377253-16.409319 59.896361 0.214586h0.039923c16.522101 16.624903 16.534078 43.092802 0.010978 59.620892L543.261644 701.262972zM986.506887 837.465011c0 23.264085-18.863581 42.121677-42.128664 42.121678H76.457886c-23.264085 0-42.122675-18.85859-42.122676-42.121678 0-23.263087 18.85859-42.121677 42.122676-42.121677h867.919339c23.265083 0 42.128664 18.85859 42.128664 42.121677z"  horiz-adv-x="1024" />

    
    <glyph glyph-name="shouqi" unicode="&#58980;" d="M959.043 156.542l-446.71 455.792-446.71-455.792z"  horiz-adv-x="1024" />

    
    <glyph glyph-name="shouqi-01" unicode="&#58891;" d="M64.001 382.604c0-11.046 8.954-20 20-20s20 8.954 20 20c0 11.046-8.954 20-20 20-11.046 0-20-8.954-20-20zM64.001 802.999c0-16.569 13.431-30 30-30s30 13.431 30 30c0 16.569-13.431 30-30 30-16.569 0-30-13.431-30-30zM284.407 772.066h645.86c16.604 0 30.065 13.432 30.065 30s-13.461 30-30.065 30h-645.86c-16.605 0-30.066-13.432-30.066-30s13.461-30 30.066-30zM64.001 383.517c0-16.569 13.431-30 30-30s30 13.431 30 30c0 16.569-13.431 30-30 30-16.569 0-30-13.431-30-30zM930.268 412.583h-645.86c-16.605 0-30.066-13.432-30.066-30 0-16.568 13.461-30 30.066-30h645.86c16.604 0 30.065 13.432 30.065 30 0 16.569-13.461 30-30.065 30zM64.001-32.827c0-16.569 13.431-30 30-30s30 13.431 30 30c0 16.569-13.431 30-30 30-16.569 0-30-13.431-30-30zM930.268-3.76h-645.86c-16.605 0-30.066-13.432-30.066-30s13.461-30 30.066-30h645.86c16.604 0 30.065 13.432 30.065 30s-13.461 30-30.065 30z"  horiz-adv-x="1024" />

    
    <glyph glyph-name="zuo" unicode="&#58908;" d="M605.391 125.78c-5.305 0-10.604 2.048-14.614 6.133l-203.42 207.234c-12.096 12.322-18.744 28.62-18.717 45.887 0.027 17.268 6.724 33.545 18.858 45.83l203.323 205.864c7.946 8.046 20.912 8.129 28.959 0.179 8.047-7.947 8.128-20.913 0.18-28.96l-203.323-205.862c-9.312-9.428-9.336-24.792-0.053-34.249l203.419-207.235c7.923-8.071 7.802-21.036-0.269-28.958-3.68-3.626-8.736-5.865-14.314-5.865-0.010 0-0.020 0-0.030 0z"  horiz-adv-x="1024" />

    
    <glyph glyph-name="you" unicode="&#58909;" d="M389.115 125.78c5.305 0 10.604 2.048 14.614 6.133l203.42 207.234c12.096 12.322 18.744 28.62 18.717 45.887-0.027 17.268-6.724 33.545-18.858 45.83l-203.323 205.864c-7.946 8.046-20.912 8.129-28.959 0.179-8.047-7.947-8.128-20.913-0.18-28.96l203.322-205.864c9.312-9.428 9.336-24.792 0.053-34.249l-203.418-207.233c-7.923-8.071-7.802-21.036 0.269-28.958 3.681-3.626 8.736-5.865 14.315-5.865 0.010 0 0.020 0 0.029 0z"  horiz-adv-x="1024" />

    
    <glyph glyph-name="delete" unicode="&#58899;" d="M512 896a512 512 0 1 1 512-512 512 512 0 0 1-512 512z m203.52-640A55.68 55.68 0 1 0 640 180.48l-128 128-128-128A55.68 55.68 0 1 0 308.48 256l128 128-128 128A55.68 55.68 0 1 0 384 587.52l128-128 128 128A55.68 55.68 0 1 0 715.52 512l-128-128z"  horiz-adv-x="1024" />

    
    <glyph glyph-name="haofangtuoiconfont_zhiding" unicode="&#59141;" d="M927.141888 559.3856c-22.693888 53.655552-55.17824 101.837824-96.54784 143.208448-41.3696 41.370624-89.552896 73.853952-143.208448 96.54784C631.822336 822.643712 572.814336 834.56 512 834.56S392.177664 822.643712 336.6144 799.141888c-53.655552-22.693888-101.837824-55.177216-143.208448-96.54784-41.370624-41.3696-73.853952-89.552896-96.54784-143.208448C73.356288 503.822336 61.44 444.814336 61.44 384s11.916288-119.822336 35.418112-175.3856c22.693888-53.655552 55.177216-101.837824 96.54784-143.208448 41.3696-41.370624 89.552896-73.853952 143.208448-96.54784C392.177664-54.643712 451.185664-66.56 512-66.56c52.112384 0 103.197696 8.825856 151.835648 26.231808 47.004672 16.821248 90.672128 41.250816 129.78688 72.608768 11.030528 8.844288 12.80512 24.955904 3.960832 35.986432-8.844288 11.031552-24.95488 12.806144-35.986432 3.961856-34.67264-27.797504-73.368576-49.447936-115.012608-64.350208C603.497472-7.54176 558.216192-15.36 512-15.36c-53.924864 0-106.222592 10.555392-155.441152 31.373312-47.552512 20.113408-90.264576 48.912384-126.949376 85.597184-36.6848 36.6848-65.483776 79.396864-85.597184 126.949376C123.195392 277.777408 112.64 330.075136 112.64 384s10.555392 106.222592 31.373312 155.441152c20.113408 47.552512 48.912384 90.264576 85.597184 126.949376 36.6848 36.6848 79.396864 65.483776 126.949376 85.597184C405.777408 772.804608 458.075136 783.36 512 783.36s106.222592-10.555392 155.441152-31.373312c47.552512-20.113408 90.264576-48.912384 126.949376-85.597184 36.6848-36.6848 65.483776-79.396864 85.597184-126.949376C900.803584 490.222592 911.36 437.924864 911.36 384c0-76.183552-21.520384-150.249472-62.232576-214.188032-7.593984-11.925504-4.081664-27.7504 7.84384-35.344384 11.925504-7.59296 27.751424-4.082688 35.344384 7.84384C938.269696 214.482944 962.56 298.056704 962.56 384c0 60.814336-11.916288 119.822336-35.418112 175.3856zM655.36 640H368.64c-14.138368 0-25.6-11.461632-25.6-25.6s11.461632-25.6 25.6-25.6h286.72c14.138368 0 25.6 11.461632 25.6 25.6s-11.461632 25.6-25.6 25.6zM512 97.28c14.138368 0 25.6 11.461632 25.6 25.6V471.40352l99.656704-99.657728c9.998336-9.998336 26.208256-9.997312 36.20352 0 9.997312 9.997312 9.997312 26.206208 0 36.20352L566.305792 515.105792c-29.943808 29.943808-78.667776 29.943808-108.611584 0L350.537728 407.949312c-9.997312-9.997312-9.997312-26.206208 0-36.20352 4.999168-4.998144 11.549696-7.497728 18.102272-7.497728s13.103104 2.499584 18.102272 7.497728L486.4 471.40352V122.88c0-14.138368 11.461632-25.6 25.6-25.6z"  horiz-adv-x="1024" />

    
    <glyph glyph-name="shanchu2" unicode="&#58999;" d="M460.8 379.345c-146.618 148.945-288.582 288.582-428.218 428.218-34.909 34.909-41.891 55.855-18.618 76.8 20.945 18.618 39.564 13.964 74.473-20.945 132.655-132.655 262.982-265.309 395.636-395.636 9.309-9.309 16.291-20.945 30.255-39.564 18.618 25.6 32.582 41.891 46.545 58.182 125.673 125.673 251.345 253.673 379.345 379.345 9.309 9.309 16.291 20.945 25.6 23.273 16.291 4.655 39.564 6.982 46.545-2.327 9.309-11.636 6.982-32.582 4.655-48.873 0-9.309-13.964-16.291-20.945-23.273-144.291-144.291-283.927-286.255-428.218-430.545 20.945-23.273 41.891-44.218 62.836-65.164 121.018-121.018 242.036-242.036 365.382-363.055l9.309-9.309c18.618-18.618 30.255-39.564 6.982-60.509-23.273-23.273-44.218-11.636-65.164 6.982l-400.291 400.291c-11.636 11.636-18.618 23.273-30.255 37.236-16.291-16.291-27.927-25.6-37.236-34.909-132.655-132.655-265.309-265.309-400.291-397.964-6.982-6.982-13.964-16.291-20.945-18.618-16.291-2.327-37.236-2.327-46.545 4.655-9.309 9.309-6.982 32.582-4.655 46.545 2.327 9.309 13.964 18.618 23.273 25.6l395.636 395.636c11.636 11.636 23.273 18.618 34.909 27.927z"  horiz-adv-x="1025" />

    
    <glyph glyph-name="shachu-xue" unicode="&#58936;" d="M568.96 383.936l326.336 326.336c7.108 7.108 11.505 16.929 11.505 27.776 0 21.694-17.587 39.281-39.281 39.281-10.847 0-20.668-4.397-27.776-11.505l-326.336-326.336-326.4 326.336c-7.108 7.108-16.929 11.505-27.776 11.505-21.694 0-39.281-17.587-39.281-39.281 0-10.847 4.397-20.668 11.505-27.776l326.4-326.336-326.272-326.336c-7.108-7.108-11.505-16.929-11.505-27.776 0-21.694 17.587-39.281 39.281-39.281 10.847 0 20.668 4.397 27.776 11.505l326.336 326.336 326.336-326.336c15.36-15.232 40.192-15.232 55.552 0 7.090 7.117 11.473 16.935 11.473 27.776 0 10.841-4.383 20.659-11.474 27.777l-326.399 326.335z"  horiz-adv-x="1024" />

    
    <glyph glyph-name="web-icon-" unicode="&#59067;" d="M845.248 653.248A63.68 63.68 0 0 1 800 672H224a63.68 63.68 0 0 1-45.248-18.752A63.68 63.68 0 0 1 160 608v-384c0-16.384 6.24-32.768 18.752-45.248 12.48-12.512 28.864-18.752 45.248-18.752h192l96-96 96 96h192a63.68 63.68 0 0 1 45.248 18.752A63.68 63.68 0 0 1 864 224V608a63.68 63.68 0 0 1-18.752 45.248zM832 240c0-14.752-7.232-24.672-18.464-35.936-11.264-11.232-27.584-12.064-42.336-12.064H576l-64-63.744L448 192H252.8c-14.752 0-31.072 0.832-42.336 12.064C199.232 215.328 192 225.248 192 240v352c0 14.752 7.232 24.672 18.464 35.936C221.728 639.168 238.048 640 252.8 640h518.4c14.752 0 31.072-0.832 42.336-12.064 11.232-11.264 18.464-21.184 18.464-35.936v-352zM512 416m-48 0a48 48 0 1 1 96 0 48 48 0 1 1-96 0ZM320 416m-48 0a48 48 0 1 1 96 0 48 48 0 1 1-96 0ZM704 416m-48 0a48 48 0 1 1 96 0 48 48 0 1 1-96 0Z"  horiz-adv-x="1024" />

    
    <glyph glyph-name="sll" unicode="&#58923;" d="M770.047 384l-516.096-483.737v967.475l516.096-483.737z"  horiz-adv-x="1024" />

    
    <glyph glyph-name="sanjiaoxing1" unicode="&#58884;" d="M512.512 538.624l370.688-370.688H141.824l370.688 370.688z"  horiz-adv-x="1024" />

    
    <glyph glyph-name="fanhuidingbu2" unicode="&#59076;" d="M516.544 498.752a31.904 31.904 0 0 1-22.624-9.376L86.624 82.08000000000004a32 32 0 1 1 45.248-45.248l384.672 384.64 384.672-384.64a32 32 0 0 1 45.248 45.248L539.2 489.376a31.904 31.904 0 0 1-22.624 9.376zM96 704h832a32 32 0 0 0 0-64H96a32 32 0 1 0 0 64z"  horiz-adv-x="1024" />

    
    <glyph glyph-name="xiangxiajiantoucuxiao" unicode="&#59592;" d="M597.333333 256V810.666667c0 23.68-19.285333 42.666667-43.093333 42.666666h-84.48A42.666667 42.666667 0 0 1 426.666667 810.666667v-554.666667H341.717333c-47.232 0-62.805333-30.549333-34.56-68.266667l153.642667-204.8c28.501333-37.973333 74.112-37.717333 102.4 0l153.6 204.8c28.501333 37.973333 12.8 68.266667-34.517333 68.266667H597.333333z"  horiz-adv-x="1024" />

    
    <glyph glyph-name="shanchu3" unicode="&#58911;" d="M512 896C230.4 896 0 665.6 0 384s230.4-512 512-512 512 230.4 512 512S793.6 896 512 896z m192-768L512 320 320 128 256 192l192 192-192 192 64 64 192-192 192 192 64-64-192-192 192-192-64-64z"  horiz-adv-x="1024" />

    
    <glyph glyph-name="sjx-r" unicode="&#58886;" d="M383.98 63.815v640.37l384.016-320.184z"  horiz-adv-x="1024" />

    
    <glyph glyph-name="shanchu4" unicode="&#58892;" d="M487.457777 61.33862499999998h49.084446V482.665608h-49.084446v-421.326983z m-106.364687 0h53.171054V482.665608h-53.171054v-421.326983z m208.620188 0h53.171054V482.665608h-53.171054v-421.326983z m157.887551 596.05768H276.399171a104.693919 104.693919 0 0 1-104.784231-104.693919l52.335671-576.008467a104.761653 104.761653 0 0 1 104.78423-104.693919H695.220003a104.739075 104.739075 0 0 1 104.761652 104.693919l52.358249 576.008467a104.693919 104.693919 0 0 1-104.739075 104.693919z m-13.050051-661.443401c0-57.776955-46.939542-58.522027-104.761652-58.522027H394.188297c-57.844688 0-104.761653 0.745072-104.761653 58.522027l-52.335671 537.490497c0 57.776955 46.916964 58.522027 104.761653 58.522027h340.294748c57.844688 0 104.761653-0.745072 104.761653-58.522027L734.550778-4.0470960000000105z m143.798916 743.717423h-196.337788L642.90691 896H381.09309L341.988094 739.670327H145.627729a26.348459 26.348459 0 0 1 0-52.719496h183.174846l-0.067734-0.383825H695.220003l-0.067734 0.383825H878.327116a26.348459 26.348459 0 0 1 0.022578 52.719496zM413.808528 765.115668l16.210963 65.430877h164.525466l15.623937-65.430877h-196.360366z"  horiz-adv-x="1024" />

    
    <glyph glyph-name="fanhuidingbu3" unicode="&#58915;" d="M951.1 342.3L561.7 787.6h365.9c12.4 0 22.4 10 22.4 22.4 0 12.4-10 22.4-22.4 22.4H97.9c-12.4 0-22.4-10-22.4-22.4 0-12.4 10-22.4 22.4-22.4h364.3L73.5 342.3c-8.2-9.3-7.2-23.5 2.1-31.7s23.5-7.2 31.7 2.1l382.2 437.8v-792.3c0-12.4 10-22.4 22.4-22.4 12.4 0 22.4 10 22.4 22.4V750.6l383-437.9c8.2-9.3 22.3-10.3 31.7-2.1 9.4 8.2 10.3 22.4 2.1 31.7z"  horiz-adv-x="1024" />

    
    <glyph glyph-name="zuo1" unicode="&#58954;" d="M666.7-1.6L278.5 386.6 666.9 775V835.6l-449-449 448.8-448.8 0.2 0.2v60.6z"  horiz-adv-x="1024" />

    
    <glyph glyph-name="shanchu5" unicode="&#58996;" d="M512 814.08C273.066667 814.08 77.368889 618.382222 77.368889 379.448889S273.066667-55.182222 512-55.182222s434.631111 193.422222 434.631111 434.631111S750.933333 814.08 512 814.08z m200.248889-587.093333c13.653333-13.653333 13.653333-34.133333 0-47.786667-6.826667-6.826667-15.928889-9.102222-25.031111-9.102222s-18.204444 2.275556-25.031111 9.102222l-152.462223 152.462222-152.462222-152.462222c-6.826667-6.826667-15.928889-9.102222-25.031111-9.102222s-18.204444 2.275556-25.031111 9.102222c-13.653333 13.653333-13.653333 34.133333 0 47.786667l152.462222 152.462222-152.462222 152.462222c-13.653333 13.653333-13.653333 34.133333 0 47.786667s34.133333 13.653333 47.786667 0l152.462222-152.462222 152.462222 152.462222c13.653333 13.653333 34.133333 13.653333 47.786667 0s13.653333-34.133333 0-47.786667l-152.462222-152.462222 157.013333-152.462222z"  horiz-adv-x="1024" />

    
    <glyph glyph-name="yousanjiao1" unicode="&#58896;" d="M405.07904 562.2016v-356.39808L618.92096 384 405.07904 562.2016z"  horiz-adv-x="1024" />

    
    <glyph glyph-name="sanjiaoxing-copy-copy-copy" unicode="&#58907;" d="M911.918 642.61l-399.918-559.886-399.918 559.886z"  horiz-adv-x="1024" />

    
    <glyph glyph-name="refresh" unicode="&#58881;" d="M888.23 503.917L718.385 503.917c-21.6679 0-39.1942 17.5561-39.1942 39.1961 0 21.6382 17.5273 39.1942 39.1942 39.1942l68.1819 0c-61.5039 86.9065-162.641 143.715-277.223 143.715-187.607 0-339.692-152.086-339.692-339.69 0-187.606 152.086-339.691 339.692-339.691 187.606 0 339.691 152.086 339.691 339.691 0 21.6382 17.5264 39.1942 39.1933 39.1942 21.64 0 39.1971-17.5561 39.1971-39.1942 0-230.899-187.2-418.082-418.082-418.082-230.885 0-418.083 187.182-418.083 418.082 0 230.898 187.198 418.081 418.083 418.081 140.127 0 263.895-69.0866 339.691-174.935l0 70.4143c0 21.64 17.5264 39.1952 39.1933 39.1952 21.64 0 39.1971-17.5552 39.1971-39.1952l0-156.78C927.427 521.473 909.868 503.917 888.23 503.917Z"  horiz-adv-x="1024" />

    
    <glyph glyph-name="triangle-right" unicode="&#58903;" d="M663.00100001 565.101l0-363.168-311.34700001 179.926z"  horiz-adv-x="1024" />

    
    <glyph glyph-name="sanjiaoxing-copy-copy" unicode="&#58887;" d="M253.39 783.918l559.886-399.918-559.886-399.918z"  horiz-adv-x="1024" />

    
    <glyph glyph-name="icon--" unicode="&#59175;" d="M683.52 404.48l-307.2 279.04c-10.24 10.24-25.6 10.24-35.84 0-10.24-10.24-10.24-25.6 0-35.84L629.76 384 340.48 120.32c-10.24-10.24-10.24-25.6 0-35.84 10.24-10.24 25.6-10.24 35.84 0l307.2 279.04c5.12 5.12 7.68 12.8 7.68 20.48 0 7.68-2.56 15.36-7.68 20.48z"  horiz-adv-x="1024" />

    
    <glyph glyph-name="zuo2" unicode="&#58882;" d="M637.156 725.333l45.51-39.822-256-301.511 256-301.511-39.822-39.822L341.334 384z"  horiz-adv-x="1024" />

    
    <glyph glyph-name="sanjiaoxing" unicode="&#58897;" d="M304.505263 514.245614h592.842105L607.214035 177.403509z"  horiz-adv-x="1139" />

    
    <glyph glyph-name="top" unicode="&#58924;" d="M186.181818 709.818182l651.636364 0 0-46.545455-651.636364 0 0 46.545455ZM509.207273 554.216727l-279.738182-279.738182a23.272727 23.272727 0 1 0-32.907636 32.907637l296.168727 296.215273a23.179636 23.179636 0 0 0 32.954182 0l296.215272-296.215273a23.272727 23.272727 0 1 0-32.907636-32.907637l-279.784727 279.738182zM488.727273 570.181818l46.545454 0 0-605.090909-46.545454 0 0 605.090909Z"  horiz-adv-x="1024" />

    
    <glyph glyph-name="tubiaolunkuo-" unicode="&#58904;" d="M940.8 396.8c-6.4 0-12.8 0-12.8 6.4L550.4 780.8c-19.2 19.2-57.6 19.2-83.2 0L96 403.2c-6.4-6.4-19.2-6.4-25.6 0s-6.4 19.2 0 25.6L448 806.4c38.4 38.4 96 38.4 134.4 0L960 428.8c6.4-6.4 6.4-19.2 0-25.6-6.4 0-12.8-6.4-19.2-6.4zM512 51.200000000000045c-12.8 0-19.2 6.4-19.2 19.2V812.8c0 12.8 6.4 19.2 19.2 19.2s19.2-6.4 19.2-19.2v-742.4c0-6.4-6.4-19.2-19.2-19.2zM800-64h-576c-12.8 0-19.2 6.4-19.2 19.2s6.4 19.2 19.2 19.2h576c12.8 0 19.2-6.4 19.2-19.2s-6.4-19.2-19.2-19.2z"  horiz-adv-x="1024" />

    
    <glyph glyph-name="xiaoxi1" unicode="&#58919;" d="M909 155.51H476.767l-193.18-193.18a33.851 33.851 0 0 0-7.75-5.8 29.819 29.819 0 0 0-14.966-4.03c-0.661 0-1.308 0.057-1.958 0.1-0.253 0.012-0.506 0.02-0.759 0.038-0.3 0.028-0.6 0.066-0.9 0.1a28.664 28.664 0 0 0-17.48 8.2 28.252 28.252 0 0 0-4.944 6.714 29.82 29.82 0 0 0-3.959 14.848V155.51H115a50 50 0 0 0-50 50v560a50 50 0 0 0 50 50h794a50 50 0 0 0 50-50v-560a50 50 0 0 0-50-50zM899 735.5a20 20 0 0 1-20 20H145a20 20 0 0 1-20-20v-500a20 20 0 0 1 20-20h146.08v-59.99h-0.209v-101.043L391.914 155.51h-0.089l59.365 59.99H879a20 20 0 0 1 20 20v500z m-196-296a45 45 0 1 0 45 45 45 45 0 0 0-45-45z m-182 1a45 45 0 1 0 45 45 45 45 0 0 0-45-45z m-182-1a45 45 0 1 0 45 45 45 45 0 0 0-45-45z"  horiz-adv-x="1024" />

    
    <glyph glyph-name="fanhuidingbu4" unicode="&#59155;" d="M533.333333 477.866667v-328.533334c0-12.8-8.533333-21.333333-21.333333-21.333333s-21.333333 8.533333-21.333333 21.333333V477.866667l-153.6-170.666667c-8.533333-8.533333-21.333333-8.533333-29.866667 0-8.533333 8.533333-8.533333 21.333333 0 29.866667l192 213.333333c8.533333 8.533333 21.333333 8.533333 29.866667 0l192-213.333333c8.533333-8.533333 8.533333-21.333333 0-29.866667-8.533333-8.533333-21.333333-8.533333-29.866667 0l-157.866667 170.666667zM320 640h384c12.8 0 21.333333-8.533333 21.333333-21.333333s-8.533333-21.333333-21.333333-21.333334h-384c-12.8 0-21.333333 8.533333-21.333333 21.333334s8.533333 21.333333 21.333333 21.333333z"  horiz-adv-x="1024" />

    
    <glyph glyph-name="triangle-down-copy-copy-copy-copy" unicode="&#58888;" d="M226.01105364 73.36759973000005l0.06717515 596.5866984 596.55417148 0.03464823-596.62134663-596.62134663z"  horiz-adv-x="1024" />

    
    <glyph glyph-name="shanchu6" unicode="&#58900;" d="M745.146 542.78c-11.707 5.82-23.356 4.765-33.99-2.857-9.627-6.885-13.72-16.667-13.72-28.407 0.04-137.27 0.032-274.54 0.032-411.81v-3.366H326.565v3.201 321.016c0 30.985 0.073 61.963-0.025 92.949-0.082 23.798-24.813 39.802-46.393 29.864-13.18-6.083-19.573-16.856-19.573-31.379v-447.57c0-0.63-0.009-1.26 0.008-1.89 0.417-14.875 10.012-27.261 24.215-31.232 1.67-0.458 3.373-0.794 5.068-1.203 148.248 0 296.488 0 444.737-0.025 2.865 0.843 5.837 1.433 8.58 2.57 12.762 5.224 20.384 17.225 20.384 31.854 0.008 149.108 0.008 298.224 0 447.332 0 0.639 0.016 1.27-0.009 1.908-0.655 13.155-6.614 23.184-18.411 29.045z m98.86 84.624c-3.84 14.735-16.856 24.747-32.23 24.747-64.338 0.008-128.659 0-192.98 0h-3.299v3.046c0 20.253 0.017 40.498 0 60.751 0 12.01-7.032 20.049-18.951 21.662-0.385 0.049-0.754 0.212-1.13 0.319H429.059c-1.408-0.221-2.824-0.369-4.208-0.68-9.709-2.16-16.275-10.34-16.29-20.458-0.042-20.572-0.017-41.153-0.017-61.725v-2.915H212.61c-16.734 0-30.029-11.051-33.107-27.506-0.303-1.63-0.458-3.275-0.687-4.92v-0.95c0.393-2.497 0.597-5.043 1.203-7.49 3.758-15.235 16.831-25.133 33.122-25.133h597.832c0.884 0 1.752 0.016 2.628 0.057 14.572 0.754 26.655 10.536 30.38 24.633 0.475 1.826 0.794 3.7 1.195 5.55 0 1.753 0 3.496 0.008 5.24-0.384 1.924-0.687 3.872-1.178 5.772zM574.164 652.29H449.959v44.068h124.205v-44.068z m56.503-488.035c0.008 54.006 0 108.02 0 162.035V487.12c0 0.877 0.016 1.753-0.025 2.62-0.507 12.78-12.885 22.136-25.304 19.132-9.734-2.358-15.956-10.495-15.956-20.982-0.008-107.774 0-215.557 0-323.34 0-0.401-0.008-0.794 0-1.195 0.442-11.879 9.972-20.761 21.695-20.254 11.084 0.5 19.581 9.636 19.59 21.154zM433.48 487.915c0 1.187 0.024 2.382-0.05 3.569-0.499 8.072-4.387 14.072-11.591 17.56-7.303 3.536-14.556 2.865-21.146-1.94-5.952-4.34-8.44-10.389-8.44-17.732 0.032-107.62 0.024-215.23 0.024-322.85 0-0.556 0.008-1.112 0.025-1.67 0.45-15.725 17.6-25.23 31.076-17.1 7.163 4.314 10.134 10.904 10.126 19.213-0.065 53.695-0.033 107.382-0.033 161.068 0 53.294 0.009 106.588 0.009 159.882z m81.987-343.676c10.348 1.932 17.15 10.184 17.15 20.917 0.017 54.006 0 108.012 0 162.018V487.997c0 1.04 0.017 2.07-0.049 3.094-0.67 12.353-12.689 21.457-24.772 18.755-10.004-2.227-16.348-10.397-16.348-21.104v-323.079c0-0.728 0-1.44 0.024-2.153 0.41-12.091 12.116-21.497 23.995-19.27z"  horiz-adv-x="1024" />

    
    <glyph glyph-name="you1" unicode="&#59079;" d="M407.808 638.72l-46.336-46.336L569.907 384 361.472 175.616l46.336-46.336 208.384 208.384L662.528 384l-46.336 46.336z"  horiz-adv-x="1024" />

    
    <glyph glyph-name="shanchu7" unicode="&#58947;" d="M867 594H157a45.13 45.13 0 0 1-45-45 45.13 45.13 0 0 1 45-45h65v-428.34C222 20 247.37-6 303.66-6h416.68c59.53 0 81.66 29.5 81.66 81.66V504h65a45.13 45.13 0 0 1 45 45 45.13 45.13 0 0 1-45 45zM712 84H312V504h400zM472 399v-210a45.13 45.13 0 0 0-45-45 45.13 45.13 0 0 0-45 45V399a45.13 45.13 0 0 0 45 45 45.13 45.13 0 0 0 45-45z m120 45a45.13 45.13 0 0 1-45-45v-210a45.13 45.13 0 0 1 45-45 45.13 45.13 0 0 1 45 45V399a45.13 45.13 0 0 1-45 45zM362 729a45.13 45.13 0 0 1 45-45h210a45.13 45.13 0 0 1 45 45 45.13 45.13 0 0 1-45 45H407a45.13 45.13 0 0 1-45-45z"  horiz-adv-x="1024" />

    
    <glyph glyph-name="yousanjiao2" unicode="&#59128;" d="M384.261 130.386l252.185 253.732-251.921 251.135z"  horiz-adv-x="1024" />

    
    <glyph glyph-name="you2" unicode="&#58940;" d="M320 665.2l41.4 38.8L704 384 361.4 64 320 102.6 621 384z"  horiz-adv-x="1024" />

    
    <glyph glyph-name="zuo3" unicode="&#58941;" d="M704 665.2L662.6 704 320 384l342.6-320 41.4 38.6L403 384z"  horiz-adv-x="1024" />

    
    <glyph glyph-name="fanhuidingbu5" unicode="&#59110;" d="M1024 158.72L512 675.84 0 158.72l71.68-66.56L512 537.6l440.32-445.44z"  horiz-adv-x="1024" />

    
    <glyph glyph-name="xiaoxi2" unicode="&#58927;" d="M342.7-2.1V136.3H202V660.8h666.1v-524.6H599.9L342.7-2.1zM252 186.3h140.7v-104.7l194.6 104.7h230.8V610.8H252v-424.5zM370.3 350.5h228.6v-50H370.3zM370.3 497.9h323.1v-50H370.3z"  horiz-adv-x="1024" />

    
    <glyph glyph-name="shanchu8" unicode="&#59151;" d="M977.488756-127.985092a26.014821 26.014821 0 0 0-18.843973 8.035524L27.657085 851.8568A26.089362 26.089362 0 0 0 65.330123 887.949568l931.032423-971.806368a26.089362 26.089362 0 0 0-18.829065-44.1432zM46.456334-127.985092a26.089362 26.089362 0 0 0-18.799249 44.128292L958.644783 887.964477a26.089362 26.089362 0 0 0 37.673038-36.092769L65.300307-119.949568a26.014821 26.014821 0 0 0-18.843973-8.035524z"  horiz-adv-x="1024" />

    
    <glyph glyph-name="shanchu9" unicode="&#59156;" d="M512-127.999097a510.462115 510.462115 0 1 0 199.29478 40.247601 508.793229 508.793229 0 0 0-199.29478-40.247601z m0 983.980111a470.45456 470.45456 0 1 1 183.714695-37.081289A469.014288 469.014288 0 0 1 512 855.992445zM712.460714 154.499967a19.946624 19.946624 0 0 0-14.448443 6.161164L306.246858 569.595501a20.003778 20.003778 0 0 0 28.885455 27.673798L726.909157 188.323498a20.003778 20.003778 0 0 0-14.437012-33.846392zM320.68387 154.499967a20.003778 20.003778 0 0 0-14.437012 33.823531l391.776844 408.93437a20.003778 20.003778 0 0 0 28.885455-27.673798L335.132313 160.661131a19.946624 19.946624 0 0 0-14.448443-6.161164z"  horiz-adv-x="1024" />

    
    <glyph glyph-name="zhidingshise" unicode="&#58938;" d="M512 845.306931a486.653465 486.653465 0 1 1 486.653465-486.653466A487.160396 487.160396 0 0 1 512 845.306931z m90.994059-417.457426a30.415842 30.415842 0 0 0-25.346534-15.207921H542.415842v-285.655445a30.415842 30.415842 0 0 0-60.831684 0V414.415842h-34.471287a30.415842 30.415842 0 0 0-25.346534 45.623762L486.653465 571.057426a31.683168 31.683168 0 0 0 52.720792 0l64.887129-112.285149a30.415842 30.415842 0 0 0-1.267327-30.415841z"  horiz-adv-x="1024" />

    
    <glyph glyph-name="fanghuidingbu1" unicode="&#58988;" d="M945.612 284.222L512.026 717.808l-0.052-0.104-0.051 0.104L78.337 284.222l72.247-72.248 361.39 361.39 361.34-361.39 72.298 72.248z m0 0"  horiz-adv-x="1024" />

    
    <glyph glyph-name="fanhuidingbu7" unicode="&#58916;" d="M925.538 777.846H98.462c-32.493 0-59.077 26.585-59.077 59.077S65.969 896 98.462 896h827.076c32.493 0 59.077-26.585 59.077-59.077s-26.584-59.077-59.077-59.077zM471.473 646.183c22.961 22.962 60.574 22.962 83.535 0L917.031 284.16c23.001-23 23.001-60.574 0-83.574-22.96-22.961-60.573-22.961-83.534 0l-262.42 262.42v-531.93c0-32.491-26.585-59.076-59.077-59.076s-59.077 26.585-59.077 59.077V460.564L192.945 200.586c-22.961-22.961-60.534-22.961-83.535 0-22.96 23-22.96 60.573 0 83.574l362.063 362.023z"  horiz-adv-x="1024" />

    
    <glyph glyph-name="shouqi2" unicode="&#58901;" d="M270.4 419.52a32 32 0 1 0-28.8 56.96l256 128a32 32 0 0 0 28.8 0l256-128a32 32 0 0 0-28.8-56.96L512 540.16z m0-288a32 32 0 0 0-28.8 56.96l256 128a32 32 0 0 0 28.8 0l256-128a32 32 0 0 0-28.8-56.96L512 252.16z"  horiz-adv-x="1024" />

    
    <glyph glyph-name="sanjiaoxing2" unicode="&#58893;" d="M512 716.8L264.533333 384l-247.466666-332.8L1006.933333 51.200000000000045 759.466667 384z"  horiz-adv-x="1024" />

    
    <glyph glyph-name="huidingbu1" unicode="&#58922;" d="M825.568 340.672l-287.392 289.28C531.808 636.352 523.488 639.424 515.2 639.36 514.08 639.456 513.12 640 512 640c-4.672 0-9.024-1.088-13.024-2.88-4.032-1.536-7.872-3.872-11.136-7.136l-259.328-258.88c-12.512-12.48-12.544-32.736-0.032-45.248 6.24-6.272 14.432-9.408 22.656-9.408 8.192 0 16.352 3.136 22.624 9.344L480 531.712 480-32c0-17.696 14.336-32 32-32s32 14.304 32 32L544 533.28l236.192-237.728c6.24-6.272 14.496-9.44 22.688-9.44s16.32 3.104 22.56 9.312C838.016 307.87199999999996 838.048 328.15999999999997 825.568 340.672zM864 704L160 704C142.336 704 128 718.336 128 736s14.336 32 32 32l704 0c17.696 0 32-14.336 32-32S881.696 704 864 704z"  horiz-adv-x="1024" />

    
    <glyph glyph-name="zhidingxian" unicode="&#58939;" d="M555.5 744.6l303.2-353.1c16-18.6 19.5-44 9.3-66.3-10.2-22.3-31.8-36.1-56.3-36.1H700.5v-271.3c0-52.9-43.1-96-96-96h-192c-52.9 0-96 43.1-96 96V289.1H205.3c-24.5 0-46.1 13.8-56.3 36.1-10.2 22.3-6.7 47.7 9.3 66.3l303.2 353.1c11.8 13.7 28.9 21.6 47 21.6s35.2-7.9 47-21.6z m-175-391.5v-335.3c0-17.6 14.4-32 32-32h192c17.6 0 32 14.4 32 32V353.1h170.8l-298.8 348-298.8-348h170.8zM860.5 777.1h-704c-17.7 0-32 14.3-32 32s14.3 32 32 32h704c17.7 0 32-14.3 32-32s-14.3-32-32-32z"  horiz-adv-x="1024" />

    
    <glyph glyph-name="fenlei" unicode="&#58917;" d="M164.3 689.6c-29.8 0-54-24.2-54-54s24.2-54 54-54 54 24.2 54 54-24.2 54-54 54zM353.2 595.6h525c20.7 0 37.5 17.9 37.5 40s-16.8 40-37.5 40h-525c-20.7 0-37.5-17.9-37.5-40s16.8-40 37.5-40zM164.3 436.8c-29.8 0-54-24.2-54-54s24.2-54 54-54 54 24.2 54 54-24.2 54-54 54zM878.2 422.8h-525c-20.7 0-37.5-17.9-37.5-40s16.8-40 37.5-40h525c20.7 0 37.5 17.9 37.5 40s-16.8 40-37.5 40zM164.3 184c-29.8 0-54-24.2-54-54s24.2-54 54-54 54 24.2 54 54-24.2 54-54 54zM878.2 170h-525c-20.7 0-37.5-17.9-37.5-40s16.8-40 37.5-40h525c20.7 0 37.5 17.9 37.5 40s-16.8 40-37.5 40z"  horiz-adv-x="1024" />

    
    <glyph glyph-name="you3" unicode="&#58942;" d="M748.3 362.7c0.1 0.2 0.3 0.4 0.4 0.6 0.2 0.3 0.5 0.7 0.7 1 0.1 0.1 0.2 0.3 0.2 0.4 0.3 0.4 0.5 0.8 0.8 1.2l0.1 0.1c2.6 4.6 4.1 9.6 4.6 14.7v0.2c0 0.5 0.1 0.9 0.1 1.4v0.6 1 1 0.6c0 0.5-0.1 0.9-0.1 1.4v0.2c-0.4 5.1-2 10.1-4.6 14.7l-0.1 0.1c-0.2 0.4-0.5 0.8-0.8 1.3-0.1 0.1-0.2 0.3-0.2 0.4-0.2 0.3-0.4 0.7-0.7 1-0.1 0.2-0.3 0.4-0.4 0.6-0.2 0.3-0.4 0.5-0.6 0.8-0.2 0.2-0.4 0.5-0.6 0.7-0.1 0.1-0.2 0.2-0.3 0.4-0.1 0.1-0.2 0.2-0.2 0.3-0.2 0.3-0.5 0.5-0.7 0.8-0.2 0.2-0.4 0.4-0.5 0.6l-0.7 0.7-0.6 0.6c-0.2 0.2-0.5 0.4-0.7 0.7l-0.6 0.6-0.3 0.3-414.6 347.6c-15.2 12.7-38 10.7-50.7-4.4-12.7-15.2-10.7-38 4.4-50.7L663.2 384 281.6 63.8c-15.2-12.7-17.2-35.6-4.4-50.7 12.7-15.2 35.6-17.2 50.7-4.4l414.4 347.7 0.3 0.3 0.6 0.6c0.2 0.2 0.5 0.4 0.7 0.7l0.6 0.6 0.7 0.7c0.2 0.2 0.4 0.4 0.5 0.6 0.2 0.3 0.5 0.5 0.7 0.8 0.1 0.1 0.2 0.2 0.2 0.3 0.1 0.1 0.2 0.2 0.3 0.4 0.2 0.2 0.4 0.5 0.6 0.7 0.4 0.1 0.6 0.4 0.8 0.6z"  horiz-adv-x="1024" />

    
    <glyph glyph-name="shanchu10" unicode="&#58928;" d="M584.127 381.39L910.316 55.2c20.01-20.01 20.082-52.467 0-72.549-20.011-20.011-52.468-20.082-72.55 0L511.579 308.84 185.39-17.348c-20.011-20.011-52.467-20.082-72.55 0-20.01 20.011-20.081 52.467 0 72.55L439.1 381.46 112.91 707.65c-20.01 20.01-20.081 52.467 0 72.549 20.012 20.01 52.468 20.082 72.55 0l326.188-326.189 326.188 326.189c20.011 20.01 52.468 20.082 72.55 0 20.01-20.011 20.081-52.468 0-72.55L584.126 381.39z"  horiz-adv-x="1024" />

    
    <glyph glyph-name="fanhuidingbu6" unicode="&#58906;" d="M542.4 76.8V449.4l208.9-209.6c11.7-11.7 30.8-11.7 42.4 0 11.7 11.7 11.7 30.8 0 42.4L538.2 538.5c-6.2 6.2-14.5 9.1-22.6 8.7-8.2 0.4-16.4-2.5-22.6-8.7l-248-255c-11.7-11.7-11.7-30.8 0-42.4 11.7-11.7 30.8-11.7 42.4 0l195 202v-366.3c0-16.5 13.5-30 30-30s30 13.5 30 30zM792.5 605.7h-554c-16.6 0-30 13.4-30 30s13.4 30 30 30h554c16.6 0 30-13.4 30-30s-13.5-30-30-30z"  horiz-adv-x="1024" />

    
    <glyph glyph-name="Tick" unicode="&#58945;" d="M523.94567233 13.211425780000013a23.9450286 23.9450286 0 0 0-16.32095433 6.42253173L148.82119573 354.53536342999996a23.93072428 23.93072428 0 0 0 32.62760505 34.98777788l340.25113116-317.55055809L1079.60193277 746.10953113a23.94073701 23.94073701 0 0 0 36.89022018-30.52490504l-574.09421837-693.74784045a23.9450286 23.9450286 0 0 0-16.89311731-8.5824476c-0.54355505-0.01430433-1.04419783-0.04291226-1.55914495-0.04291226z"  horiz-adv-x="1354" />

    
    <glyph glyph-name="shouqi3" unicode="&#58921;" d="M782 797m41.5 0l0 0q41.5 0 41.5-41.5l0-747q0-41.5-41.5-41.5l0 0q-41.5 0-41.5 41.5l0 747q0 41.5 41.5 41.5ZM603.5 37.17L244.89 382 603.5 726.83a40.31 40.31 0 0 1 12.5 29c0 36.58-46 54.9-72.88 29L184.51 440.06c-33.35-32.07-33.35-84.05 0-116.12l358.61-344.83c26.89-25.87 72.88-7.55 72.88 29a40.31 40.31 0 0 1-12.5 29.06z"  horiz-adv-x="1024" />

    
    <glyph glyph-name="xiaoxi3" unicode="&#58885;" d="M304 464.7m-60 0a60 60 0 1 1 120 0 60 60 0 1 1-120 0ZM512 464.7m-60 0a60 60 0 1 1 120 0 60 60 0 1 1-120 0ZM720 464.7m-60 0a60 60 0 1 1 120 0 60 60 0 1 1-120 0ZM930 816.7H94c-51.9 0-94-42.1-94-94v-516c0-51.9 42.1-94 94-94h216V-21.6c0.4-4.1 1.6-8.3 3.9-12.1 8.2-14.3 26.7-19.2 41-11L370-36l250.6 144.7c4.6 2.6 9.7 4 15 4H930c51.9 0 94 42.1 94 94v516c0 51.9-42.1 94-94 94z m34-610c0-18.8-15.2-34-34-34H617.9c-4 0-8.1-0.9-11.6-3h-0.1l-98.7-57L370 33.3V142.7c0 16.6-13.4 30-30 30H94c-18.8 0-34 15.2-34 34v516c0 18.8 15.2 34 34 34h836c18.8 0 34-15.2 34-34v-516z"  horiz-adv-x="1024" />

    
    <glyph glyph-name="xiangxiajiantou1" unicode="&#59018;" d="M512.2048-128H512a25.4976 25.4976 0 0 0-18.1248 7.4752L168.0384 205.312a25.6 25.6 0 0 0 36.2496 36.2496l282.112-282.112V870.4a25.6 25.6 0 0 0 51.2 0v-911.36l282.5216 282.5216a25.6 25.6 0 1 0 36.1984-36.2496l-325.8368-325.8368a25.4976 25.4976 0 0 0-18.2784-7.4752z"  horiz-adv-x="1024" />

    
    <glyph glyph-name="you4" unicode="&#58920;" d="M582.946724 234.000458c-2.380318 0-4.758203 0.931693-6.620373 2.689261L434.511964 376.953311c-1.758784 1.758784-2.792647 4.137885-2.792646 6.620373 0 2.482488 1.033863 4.861589 2.792646 6.619156l141.814387 141.090682c3.620953 3.620953 9.619792 3.620953 13.240745 0s3.620953-9.619792 0-13.240744l-135.195231-134.365708 135.090628-133.642004c3.72434-3.620953 3.72434-9.619792 0.103387-13.240745-1.86217-1.86217-4.240055-2.793863-6.619156-2.793863z"  horiz-adv-x="1024" />

    
    <glyph glyph-name="zuo-" unicode="&#58944;" d="M689.92 704a47.36 47.36 0 0 0 0-64l-256-256 256-256a47.36 47.36 0 0 0-64-64L334.08 350.08A50.56 50.56 0 0 0 320 384a47.36 47.36 0 0 0 14.08 33.28L622.72 704a47.36 47.36 0 0 0 67.2 0z"  horiz-adv-x="1024" />

    
    <glyph glyph-name="zhiding1" unicode="&#58946;" d="M576.8 751.9h382.6v-79.5H576.8zM699.8 136.2h259.6v-79.5H699.8zM711.3 546.6h248v-79.5h-248zM806 341.4h153.3v-79.5H806zM496.8-40.3H279.5c-22 0-39.8 17.8-39.8 39.8V162.1H103.1c-13.8 0-26.6 7.1-33.8 18.8-7.2 11.7-7.9 26.3-1.8 38.6L352.6 792c13.5 27 57.7 27 71.2 0l285.1-572.4c6.1-12.3 5.4-27-1.8-38.6-7.3-11.7-20-18.8-33.8-18.8H536.6v-162.6c0-22.2-17.8-39.9-39.8-39.9z m-177.5 79.5h137.8V201.8c0 22 17.8 39.8 39.8 39.8H609L388.2 685.1 167.3 241.6h112.2c22 0 39.8-17.8 39.8-39.8v-162.6z"  horiz-adv-x="1024" />

    
    <glyph glyph-name="trigon2" unicode="&#58894;" d="M512.37705078 121.90488281l-449.60449219 449.59921875 899.20810547 0-449.60449218-449.59921875z"  horiz-adv-x="1024" />

    
    <glyph glyph-name="fanhuidingbu-" unicode="&#58950;" d="M511.3 546.9l395.44-392.72a32 32 0 0 1 45.1 45.41L533.7 614.86a32 32 0 0 1-45.25-0.16L76 199.43a32 32 0 1 1 45.41-45.1z"  horiz-adv-x="1024" />

    
    <glyph glyph-name="shouqi-" unicode="&#58951;" d="M176 382.3l392.73 395.44a32 32 0 0 1-45.41 45.1L108 404.7a32 32 0 0 1 0.16-45.25L523.48-53a32 32 0 1 1 45.1 45.41zM525.23 382.3L918 777.74a32 32 0 1 1-45.41 45.1L457.27 404.7a32 32 0 0 1 0.16-45.25L872.7-53a32 32 0 0 1 45.1 45.41z"  horiz-adv-x="1024" />

    
    <glyph glyph-name="sanjiaoxing3" unicode="&#58964;" d="M72.103135-2.189417c3.19925-120.771685 79.981248-159.162684 183.956871-95.177685l641.44961 395.107366c104.775435 65.584623 102.375998 154.363809-6.3985 214.349745L228.066569 870.406001C120.891697 927.992499 46.509136 885.602438 50.508198 764.830753L72.103135-2.189417z"  horiz-adv-x="1024" />

    
    <glyph glyph-name="xiaoxi4" unicode="&#58898;" d="M512.5 813.3c-248.2 0-448-174.8-448-390.3 0-132.7 76.5-249.8 192-321.6v-120.2c0-15.6 10.9-26.5 25-26.5 4.7 0 9.4 1.6 12.5 3.1L415.7 39c31.2-6.2 62.4-7.8 95.2-7.8C759.2 31.200000000000045 959 206 959 421.5c1.5 217-199.8 391.8-446.5 391.8zM311.1 359c-29.7 0-53.1 25-53.1 53.1 0 29.7 25 53.1 53.1 53.1 29.7 0 53.1-25 53.1-53.1 1.5-28.1-23.4-53.1-53.1-53.1z m204.5 0c-29.7 0-53.1 25-53.1 53.1 0 29.7 25 53.1 53.1 53.1 29.7 0 53.1-25 53.1-53.1s-25-53.1-53.1-53.1z m196.7 0c-29.7 0-53.1 25-53.1 53.1 0 29.7 25 53.1 53.1 53.1 29.7 0 53.1-25 53.1-53.1S742 359 712.3 359z m0 0"  horiz-adv-x="1024" />

    
    <glyph glyph-name="shanchu11" unicode="&#59269;" d="M571.733333 384l226.133334 226.133333c17.066667 17.066667 17.066667 42.666667 0 59.733334s-42.666667 17.066667-59.733334 0L512 443.733333 285.866667 669.866667c-17.066667 17.066667-42.666667 17.066667-59.733334 0s-17.066667-42.666667 0-59.733334l226.133334-226.133333-226.133334-226.133333c-17.066667-17.066667-17.066667-42.666667 0-59.733334 8.533333-8.533333 17.066667-12.8 29.866667-12.8s21.333333 4.266667 29.866667 12.8l226.133333 226.133334 226.133333-226.133334c8.533333-8.533333 21.333333-12.8 29.866667-12.8s21.333333 4.266667 29.866667 12.8c17.066667 17.066667 17.066667 42.666667 0 59.733334L571.733333 384z"  horiz-adv-x="1024" />

    
    <glyph glyph-name="zuo4" unicode="&#59284;" d="M397.824 396.8l365.568-379.904c13.824-13.824 13.824-36.352 0-50.176s-35.84-13.824-49.664 0l-400.896 404.992c-13.824 13.824-13.824 36.352 0 50.176l400.896 404.992c13.824 13.824 35.84 13.824 49.664 0s13.824-36.352 0-50.176L397.824 396.8z"  horiz-adv-x="1024" />

    
    <glyph glyph-name="shanchu12" unicode="&#59207;" d="M896 678.4L601.6 384l294.4-294.4-89.6-89.6L512 294.4 217.6 0 128 89.6 422.4 384 128 678.4 217.6 768 512 473.6 806.4 768 896 678.4z"  horiz-adv-x="1024" />

    
    <glyph glyph-name="sanjiaoxing-copy" unicode="&#58912;" d="M319.03138212 603.49569376l385.93229905-222.86248743-385.93229905-222.80571595z"  horiz-adv-x="1024" />

    
    <glyph glyph-name="dasanjiao" unicode="&#58974;" d="M178.944 830.390857A36.571429 36.571429 0 0 0 223.341714 888.466286l621.714286-475.428572a36.571429 36.571429 0 0 0 0-58.075428l-621.714286-475.428572a36.571429 36.571429 0 0 0-44.397714 58.075429L762.624 384 178.980571 830.390857z"  horiz-adv-x="1024" />

    
    <glyph glyph-name="iconfront-" unicode="&#58890;" d="M279.3 3.4c-17.2 0-31.1 13.9-31.1 31.1v699c0 17.1 14 31.1 31.1 31.1 6.4 0 12.6-2 17.9-5.8l491.5-349.5c8.2-5.8 13.1-15.3 13.1-25.3s-4.9-19.5-13.1-25.3L297.2 9.1c-5.3-3.7-11.5-5.7-17.9-5.7z m0 733.2c-1 0-3.1-0.8-3.1-3.1v-699.1c0-2.3 2.1-3.1 3.1-3.1 0.6 0 1.1 0.2 1.7 0.6l491.5 349.5c1.1 0.8 1.3 1.8 1.3 2.5s-0.2 1.7-1.3 2.5L281 736c-0.6 0.4-1.1 0.6-1.7 0.6z"  horiz-adv-x="1024" />

    
    <glyph glyph-name="wujieshejishigongju-" unicode="&#58925;" d="M249.756098 63.479675l48.286178 124.045528h-13.320325c-43.291057 0-78.256911 34.965854-78.25691 78.256911V546.341463c0 43.291057 34.965854 78.256911 78.25691 78.256911h521.990244c43.291057 0 78.256911-34.965854 78.256911-78.256911v-280.559349c0-43.291057-34.965854-78.256911-78.256911-78.256911H469.541463L249.756098 63.479675z m34.965853 519.492683c-19.980488 0-36.630894-16.650407-36.630894-36.630895v-280.559349c0-19.980488 16.650407-36.630894 36.630894-36.630894h74.094309l-28.305691-72.429269L457.886179 229.15122h347.993496c19.980488 0 36.630894 16.650407 36.630894 36.630894V546.341463c0 19.980488-16.650407 36.630894-36.630894 36.630895H284.721951zM405.437398 413.970732m-19.147967 0a19.147967 19.147967 0 1 1 38.295935 0 19.147967 19.147967 0 1 1-38.295935 0ZM405.437398 374.009756c-21.645528 0-39.960976 18.315447-39.960975 39.960976s18.315447 39.960976 39.960975 39.960975c21.645528 0 39.960976-18.315447 39.960976-39.960975s-18.315447-39.960976-39.960976-39.960976z m0 41.626016c-0.83252 0-1.665041-0.83252-1.66504-1.66504 0-1.665041 3.330081-1.665041 3.330081 0 0 0.83252-0.83252 1.665041-1.665041 1.66504zM557.788618 413.970732m-19.147968 0a19.147967 19.147967 0 1 1 38.295935 0 19.147967 19.147967 0 1 1-38.295935 0ZM557.788618 374.009756c-21.645528 0-39.960976 18.315447-39.960976 39.960976s18.315447 39.960976 39.960976 39.960975c21.645528 0 39.960976-18.315447 39.960975-39.960975s-17.482927-39.960976-39.960975-39.960976z m0 41.626016c-0.83252 0-1.665041-0.83252-1.665041-1.66504 0-1.665041 3.330081-1.665041 3.330082 0 0 0.83252 0 1.665041-1.665041 1.66504zM710.972358 413.970732m-19.147968 0a19.147967 19.147967 0 1 1 38.295935 0 19.147967 19.147967 0 1 1-38.295935 0ZM710.972358 374.009756c-21.645528 0-39.960976 18.315447-39.960976 39.960976s18.315447 39.960976 39.960976 39.960975 39.960976-18.315447 39.960975-39.960975-17.482927-39.960976-39.960975-39.960976z m0 41.626016c-0.83252 0-1.665041-0.83252-1.665041-1.66504 0-1.665041 3.330081-1.665041 3.330081 0 0 0.83252-0.83252 1.665041-1.66504 1.66504z"  horiz-adv-x="1090" />

    
    <glyph glyph-name="shanchu13" unicode="&#58968;" d="M165.236364 34.443636c-6.050909 0-11.869091 2.327273-16.523637 6.749091a23.179636 23.179636 0 0 0 0 32.814546l651.636364 651.636363a23.179636 23.179636 0 1 0 32.814545-32.814545l-651.636363-651.636364c-4.421818-4.654545-10.24-6.749091-16.290909-6.749091zM631.621818 219.694545c-6.050909 0-11.869091 2.327273-16.523636 6.749091L148.712727 692.829091A23.179636 23.179636 0 1 0 181.527273 725.643636l466.385454-466.385454c9.076364-9.076364 9.076364-23.738182 0-32.814546a22.341818 22.341818 0 0 0-16.290909-6.749091zM816.872727 34.443636c-6.050909 0-11.869091 2.327273-16.523636 6.749091l-104.029091 104.029091a23.179636 23.179636 0 1 0 32.814545 32.814546l104.029091-104.029091c9.076364-9.076364 9.076364-23.738182 0-32.814546-4.421818-4.654545-10.24-6.749091-16.290909-6.749091z"  horiz-adv-x="1024" />

    
    <glyph glyph-name="xiaoxi5" unicode="&#59234;" d="M837.818182 872.727273H186.181818C83.781818 872.727273 0 788.945455 0 688.872727v-525.963636c0-102.4 83.781818-183.854545 186.181818-183.854546h158.254546l90.763636-58.181818c23.272727-13.963636 48.872727-23.272727 76.8-23.272727s53.527273 6.981818 76.8 23.272727l90.763636 58.181818H837.818182c102.4 0 186.181818 83.781818 186.181818 183.854546V688.872727C1024 788.945455 940.218182 872.727273 837.818182 872.727273z m93.090909-709.818182c0-51.2-41.890909-90.763636-93.090909-90.763636h-172.218182c-9.309091 0-18.618182-2.327273-25.6-6.981819l-102.4-67.490909c-6.981818-6.981818-16.290909-9.309091-25.6-9.309091s-18.618182 2.327273-25.6 6.981819l-102.4 67.490909c-6.981818 4.654545-16.290909 6.981818-25.6 6.981818H186.181818c-51.2 0-93.090909 41.890909-93.090909 90.763636V688.872727C93.090909 737.745455 134.981818 779.636364 186.181818 779.636364h651.636364c51.2 0 93.090909-41.890909 93.090909-90.763637v-525.963636zM512 418.909091m-69.818182 0a69.818182 69.818182 0 1 1 139.636364 0 69.818182 69.818182 0 1 1-139.636364 0ZM279.272727 418.909091m-69.818182 0a69.818182 69.818182 0 1 1 139.636364 0 69.818182 69.818182 0 1 1-139.636364 0ZM744.727273 418.909091m-69.818182 0a69.818182 69.818182 0 1 1 139.636364 0 69.818182 69.818182 0 1 1-139.636364 0Z"  horiz-adv-x="1024" />

    
    <glyph glyph-name="tick-fill" unicode="&#58949;" d="M429.568 129.024c-10.752 0-20.48 4.096-27.648 11.264L135.168 407.04c-18.432 18.432-6.144 36.352 8.704 51.712s30.208 19.968 46.592 3.584l239.104-239.104L833.536 627.2c14.848 14.848 31.232 3.584 45.568-10.752 14.848-14.848 24.576-29.184 9.728-44.544L457.216 140.288c-7.168-7.168-17.408-11.264-27.648-11.264z"  horiz-adv-x="1024" />

    
    <glyph glyph-name="sanjiaoxing4" unicode="&#58943;" d="M535.467 83.2L985.6 646.4c14.933 19.2 2.133 49.067-23.467 49.067H61.867c-25.6 0-38.4-29.867-23.467-49.067l450.133-563.2c12.8-14.933 34.134-14.933 46.934 0z"  horiz-adv-x="1024" />

    
    <glyph glyph-name="top1" unicode="&#58926;" d="M186.181818 709.818182l651.636364 0 0-46.545455-651.636364 0 0 46.545455ZM509.207273 554.216727l-279.738182-279.738182a23.272727 23.272727 0 1 0-32.907636 32.907637l296.168727 296.215273a23.179636 23.179636 0 0 0 32.954182 0l296.215272-296.215273a23.272727 23.272727 0 1 0-32.907636-32.907637l-279.784727 279.738182zM488.727273 570.181818l46.545454 0 0-605.090909-46.545454 0 0 605.090909Z"  horiz-adv-x="1024" />

    


  </font>
</defs>
</svg>
